<svg width="16" height="16" viewBox="0 0 16 16" fill="none" xmlns="http://www.w3.org/2000/svg">
  <path fill-rule="evenodd" clip-rule="evenodd"
    d="M0 1.0894C0 0.774803 0.26415 0.519775 0.589995 0.519775H1.16775C2.25875 0.519775 3.17903 1.30412 3.31435 2.34932L3.47081 3.55775H14.6231C15.4647 3.55775 16.1093 4.28044 15.9845 5.08403L15.141 10.5131C14.9821 11.5356 14.0724 12.2919 13.0016 12.2919H5.48488C4.41405 12.2919 3.50435 11.5356 3.34551 10.5131L2.36651 4.21187L2.36453 4.19802L2.14348 2.49063C2.08197 2.01554 1.66366 1.65902 1.16775 1.65902H0.589995C0.26415 1.65902 0 1.40399 0 1.0894ZM3.63507 4.69699L4.51244 10.3441C4.58464 10.8089 4.99814 11.1527 5.48488 11.1527H13.0016C13.4884 11.1527 13.9019 10.8089 13.9741 10.3442L14.8176 4.91503C14.8354 4.80023 14.7433 4.69699 14.6231 4.69699H3.63507Z"
    fill="#EB5757" />
  <path
    d="M13.9632 14.7603C13.9632 15.1797 13.611 15.5198 13.1765 15.5198C12.7421 15.5198 12.3899 15.1797 12.3899 14.7603C12.3899 14.3408 12.7421 14.0008 13.1765 14.0008C13.611 14.0008 13.9632 14.3408 13.9632 14.7603Z"
    fill="#EB5757" />
  <path
    d="M6.09661 14.7603C6.09661 15.1797 5.74441 15.5198 5.30995 15.5198C4.87549 15.5198 4.52329 15.1797 4.52329 14.7603C4.52329 14.3408 4.87549 14.0008 5.30995 14.0008C5.74441 14.0008 6.09661 14.3408 6.09661 14.7603Z"
    fill="#EB5757" />
</svg>