<svg width="22" height="21" viewBox="0 0 22 21" fill="none" xmlns="http://www.w3.org/2000/svg">
  <path fill-rule="evenodd" clip-rule="evenodd"
    d="M0.5 1.27927C0.5 0.859812 0.846696 0.519775 1.27437 0.519775H2.03267C3.46462 0.519775 4.67248 1.56557 4.85009 2.95917L5.05544 4.57041H19.6928C20.7974 4.57041 21.6435 5.53399 21.4796 6.60544L20.3726 13.8443C20.1641 15.2075 18.9701 16.216 17.5646 16.216H7.69891C6.29344 16.216 5.09946 15.2075 4.89098 13.8443L3.60604 5.44257L3.60345 5.42411L3.31331 3.14758C3.23258 2.51413 2.68355 2.03876 2.03267 2.03876H1.27437C0.846696 2.03876 0.5 1.69873 0.5 1.27927ZM5.27103 6.0894L6.42258 13.6189C6.51734 14.2386 7.06006 14.697 7.69891 14.697H17.5646C18.2035 14.697 18.7462 14.2386 18.841 13.6189L19.948 6.38011C19.9714 6.22705 19.8506 6.0894 19.6928 6.0894H5.27103Z"
    fill="white" />
  <path
    d="M18.8267 19.5071C18.8267 20.0664 18.3644 20.5198 17.7942 20.5198C17.224 20.5198 16.7617 20.0664 16.7617 19.5071C16.7617 18.9478 17.224 18.4945 17.7942 18.4945C18.3644 18.4945 18.8267 18.9478 18.8267 19.5071Z"
    fill="white" />
  <path
    d="M8.5018 19.5071C8.5018 20.0664 8.03954 20.5198 7.46931 20.5198C6.89908 20.5198 6.43682 20.0664 6.43682 19.5071C6.43682 18.9478 6.89908 18.4945 7.46931 18.4945C8.03954 18.4945 8.5018 18.9478 8.5018 19.5071Z"
    fill="white" />
  <path fill-rule="evenodd" clip-rule="evenodd"
    d="M0.5 1.27927C0.5 0.859812 0.846696 0.519775 1.27437 0.519775H2.03267C3.46462 0.519775 4.67248 1.56557 4.85009 2.95917L5.05544 4.57041H19.6928C20.7974 4.57041 21.6435 5.53399 21.4796 6.60544L20.3726 13.8443C20.1641 15.2075 18.9701 16.216 17.5646 16.216H7.69891C6.29344 16.216 5.09946 15.2075 4.89098 13.8443L3.60604 5.44257L3.60345 5.42411L3.31331 3.14758C3.23258 2.51413 2.68355 2.03876 2.03267 2.03876H1.27437C0.846696 2.03876 0.5 1.69873 0.5 1.27927ZM5.27103 6.0894L6.42258 13.6189C6.51734 14.2386 7.06006 14.697 7.69891 14.697H17.5646C18.2035 14.697 18.7462 14.2386 18.841 13.6189L19.948 6.38011C19.9714 6.22705 19.8506 6.0894 19.6928 6.0894H5.27103Z"
    stroke="white" stroke-width="0.5" stroke-linecap="round" stroke-linejoin="round" />
  <path
    d="M18.8267 19.5071C18.8267 20.0664 18.3644 20.5198 17.7942 20.5198C17.224 20.5198 16.7617 20.0664 16.7617 19.5071C16.7617 18.9478 17.224 18.4945 17.7942 18.4945C18.3644 18.4945 18.8267 18.9478 18.8267 19.5071Z"
    stroke="white" stroke-width="0.5" stroke-linecap="round" stroke-linejoin="round" />
  <path
    d="M8.5018 19.5071C8.5018 20.0664 8.03954 20.5198 7.46931 20.5198C6.89908 20.5198 6.43682 20.0664 6.43682 19.5071C6.43682 18.9478 6.89908 18.4945 7.46931 18.4945C8.03954 18.4945 8.5018 18.9478 8.5018 19.5071Z"
    stroke="white" stroke-width="0.5" stroke-linecap="round" stroke-linejoin="round" />
</svg>