<svg width="23" height="24" viewBox="0 0 23 24" fill="none" xmlns="http://www.w3.org/2000/svg">
  <path
    d="M8.05 10.8698C8.68513 10.8698 9.2 10.3549 9.2 9.71978C9.2 9.08465 8.68513 8.56978 8.05 8.56978C7.41487 8.56978 6.9 9.08465 6.9 9.71978C6.9 10.3549 7.41487 10.8698 8.05 10.8698Z"
    fill="white" />
  <path
    d="M16.1 9.71978C16.1 10.3549 15.5851 10.8698 14.95 10.8698C14.3149 10.8698 13.8 10.3549 13.8 9.71978C13.8 9.08465 14.3149 8.56978 14.95 8.56978C15.5851 8.56978 16.1 9.08465 16.1 9.71978Z"
    fill="white" />
  <path fill-rule="evenodd" clip-rule="evenodd"
    d="M11.5 0.519775C5.14873 0.519775 0 5.6685 0 12.0198C0 18.371 5.14873 23.5198 11.5 23.5198C17.8513 23.5198 23 18.371 23 12.0198C23 5.6685 17.8513 0.519775 11.5 0.519775ZM2.3 12.0198C2.3 6.93876 6.41898 2.81978 11.5 2.81978C16.581 2.81978 20.7 6.93876 20.7 12.0198C20.7 17.1008 16.581 21.2198 11.5 21.2198C6.41898 21.2198 2.3 17.1008 2.3 12.0198Z"
    fill="white" />
  <path
    d="M8.93932 14.7407C8.54076 14.2543 7.82396 14.1779 7.3316 14.5718C6.83565 14.9685 6.75594 15.6931 7.1527 16.189L7.15343 16.19L7.15497 16.1919L7.1584 16.1961L7.16664 16.2062L7.18869 16.2324C7.20585 16.2525 7.22801 16.2778 7.25517 16.3075C7.30944 16.3669 7.38403 16.4442 7.47909 16.5334C7.66875 16.7112 7.943 16.9387 8.303 17.1637C9.02756 17.6166 10.0984 18.0573 11.5 18.0573C12.9016 18.0573 13.9724 17.6166 14.697 17.1637C15.057 16.9387 15.3313 16.7112 15.5209 16.5334C15.616 16.4442 15.6906 16.3669 15.7448 16.3075C15.772 16.2778 15.7941 16.2525 15.8113 16.2324L15.8334 16.2062L15.8416 16.1961L15.845 16.1919L15.8466 16.19L15.848 16.1882C16.2448 15.6922 16.1644 14.9685 15.6684 14.5718C15.176 14.1779 14.4592 14.2543 14.0607 14.7407C14.0587 14.7429 14.0543 14.748 14.0474 14.7556C14.0298 14.7748 13.9965 14.8098 13.9478 14.8554C13.85 14.9471 13.693 15.079 13.478 15.2133C13.0526 15.4792 12.3984 15.7573 11.5 15.7573C10.6016 15.7573 9.94744 15.4792 9.522 15.2133C9.307 15.079 9.15 14.9471 9.05216 14.8554C9.00346 14.8098 8.97024 14.7748 8.95264 14.7556C8.94573 14.748 8.94129 14.7429 8.93932 14.7407Z"
    fill="white" />
</svg>