<svg width="18" height="27" viewBox="0 0 18 40" fill="none" xmlns="http://www.w3.org/2000/svg">
  <path
    d="M16 0.519775H2C1.46957 0.519775 0.960859 0.730489 0.585786 1.10556C0.210714 1.48063 0 1.98934 0 2.51978V24.5198C8.87966e-05 24.6982 0.0479345 24.8734 0.138572 25.0272C0.22921 25.1809 0.359337 25.3076 0.51545 25.394C0.671562 25.4805 0.847972 25.5236 1.02637 25.5189C1.20477 25.5142 1.37866 25.4619 1.53 25.3673L9 20.6985L16.4713 25.3673C16.6226 25.4615 16.7963 25.5136 16.9745 25.5182C17.1528 25.5227 17.3289 25.4795 17.4849 25.3931C17.6408 25.3067 17.7707 25.1801 17.8613 25.0266C17.9519 24.873 17.9998 24.698 18 24.5198V2.51978C18 1.98934 17.7893 1.48063 17.4142 1.10556C17.0391 0.730489 16.5304 0.519775 16 0.519775ZM16 22.716L9.52875 18.6723C9.36982 18.5729 9.18617 18.5203 8.99875 18.5203C8.81133 18.5203 8.62768 18.5729 8.46875 18.6723L2 22.716V2.51978H16V22.716Z"
    fill="#8A8A8A" />
</svg>