<svg width="23" height="24" viewBox="0 0 23 24" fill="none" xmlns="http://www.w3.org/2000/svg">
  <path fill-rule="evenodd" clip-rule="evenodd"
    d="M10.0766 0.460608C9.31484 0.146573 8.47665 0.0644073 7.66799 0.224501C6.85934 0.384595 6.11654 0.779757 5.53353 1.36002C4.95053 1.94028 4.55349 2.67958 4.39264 3.48443C4.23179 4.28927 4.31435 5.12352 4.62987 5.88166C4.75491 6.18213 4.91433 6.4653 5.1039 6.72606C4.60103 6.72607 4.21988 6.72896 3.88044 6.78247C1.91215 7.09275 0.368445 8.62918 0.0566976 10.5882C-0.000267728 10.9462 -0.000135164 11.3508 4.38759e-05 11.8967L3.16749e-05 12.068C-0.000191645 12.4165 -0.000383706 12.7164 0.0425393 12.9861C0.243011 14.2459 1.12274 15.2727 2.30005 15.6866L2.30005 17.27C2.30004 18.2068 2.30002 18.98 2.35255 19.6096C2.40711 20.2635 2.52426 20.8642 2.81795 21.4269C3.25437 22.2631 3.9394 22.9449 4.77956 23.3793C5.34493 23.6716 5.9485 23.7882 6.60555 23.8425C7.23803 23.8948 8.01487 23.8948 8.95613 23.8948H14.0438C14.9851 23.8948 15.762 23.8948 16.3945 23.8425C17.0515 23.7882 17.6551 23.6716 18.2204 23.3793C19.0606 22.9449 19.7456 22.2631 20.1821 21.4269C20.4757 20.8642 20.5929 20.2635 20.6475 19.6096C20.7 18.9801 20.7 18.2069 20.7 17.27V15.6866C21.8773 15.2727 22.757 14.2459 22.9575 12.9861C23.0004 12.7164 23.0002 12.4165 23 12.068L23 11.8967C23.0001 11.3508 23.0003 10.9462 22.9433 10.5882C22.6316 8.62918 21.0879 7.09275 19.1196 6.78247C18.7801 6.72896 18.399 6.72607 17.8961 6.72606C18.0857 6.4653 18.2451 6.18213 18.3701 5.88166C18.6857 5.12352 18.7682 4.28927 18.6074 3.48443C18.4465 2.67958 18.0495 1.94028 17.4665 1.36002C16.8835 0.779758 16.1407 0.384595 15.332 0.224501C14.5234 0.0644073 13.6852 0.146573 12.9234 0.460608C12.3836 0.683159 11.8994 1.01508 11.5 1.43243C11.1006 1.01508 10.6164 0.683159 10.0766 0.460608ZM10.35 9.01526H5.29004C4.60508 9.01526 4.39649 9.01881 4.24024 9.04344C3.25609 9.19858 2.48424 9.9668 2.32837 10.9463C2.30362 11.1018 2.30005 11.3094 2.30005 11.9912C2.30005 12.4602 2.30362 12.5615 2.31421 12.628C2.39215 13.1178 2.77807 13.5019 3.27015 13.5795C3.33701 13.59 3.43876 13.5936 3.91004 13.5936H10.35V9.01526ZM12.65 13.5936V9.01526H17.71C18.3949 9.01526 18.6035 9.01881 18.7598 9.04344C19.7439 9.19858 20.5158 9.9668 20.6716 10.9463C20.6964 11.1018 20.7 11.3094 20.7 11.9912C20.7 12.4602 20.6964 12.5615 20.6858 12.628C20.6079 13.1178 20.2219 13.5019 19.7299 13.5795C19.663 13.59 19.5612 13.5936 19.09 13.5936H12.65ZM10.35 15.8827H4.60004V17.2219C4.60004 18.2188 4.60096 18.8966 4.64465 19.4201C4.68719 19.9299 4.76426 20.1902 4.85899 20.3717C5.0772 20.7898 5.41971 21.1307 5.83979 21.3479C6.02216 21.4422 6.28365 21.5189 6.7959 21.5612C7.32192 21.6047 8.00285 21.6056 9.00452 21.6056H10.35V15.8827ZM12.65 21.6056V15.8827H18.4V17.2219C18.4 18.2188 18.399 18.8966 18.3554 19.4201C18.3128 19.9299 18.2357 20.1902 18.141 20.3717C17.9228 20.7898 17.5803 21.1307 17.1602 21.3479C16.9778 21.4422 16.7164 21.5189 16.2041 21.5612C15.6781 21.6047 14.9972 21.6056 13.9955 21.6056H12.65ZM14.5187 6.15381H12.65V4.29387C12.65 3.92601 12.7596 3.56641 12.9649 3.26055C13.1703 2.95468 13.4621 2.71629 13.8036 2.57551C14.1451 2.43474 14.5208 2.39791 14.8833 2.46967C15.2458 2.54144 15.5788 2.71858 15.8401 2.9787C16.1015 3.23882 16.2795 3.57023 16.3516 3.93102C16.4237 4.29181 16.3867 4.66578 16.2452 5.00564C16.1038 5.3455 15.8643 5.63598 15.557 5.84036C15.2496 6.04473 14.8883 6.15381 14.5187 6.15381ZM10.0351 3.26055C10.2404 3.56641 10.35 3.92601 10.35 4.29387V6.15381H8.48127C8.11167 6.15381 7.75037 6.04473 7.44305 5.84036C7.13574 5.63598 6.89622 5.3455 6.75478 5.00564C6.61334 4.66578 6.57633 4.29181 6.64844 3.93102C6.72054 3.57022 6.89852 3.23882 7.15987 2.9787C7.42122 2.71858 7.7542 2.54144 8.1167 2.46967C8.4792 2.39791 8.85494 2.43474 9.19641 2.57551C9.53787 2.71629 9.82973 2.95468 10.0351 3.26055Z"
    fill="white" />
</svg>