<svg width="27" height="27" viewBox="0 0 27 27" fill="none" xmlns="http://www.w3.org/2000/svg">
  <path
    d="M12.7926 26.2266C13.183 26.6173 13.8161 26.6175 14.2068 26.2272C14.5975 25.8368 14.5978 25.2036 14.2074 24.8129L12.7926 26.2266ZM3.41771 15.4295L2.70442 16.1304L2.71032 16.1363L3.41771 15.4295ZM3.41771 3.74579L2.72634 3.02329C2.71893 3.03038 2.71163 3.03758 2.70445 3.0449L3.41771 3.74579ZM12.9533 3.67842C13.4157 3.98037 14.0353 3.85028 14.3373 3.38786C14.6393 2.92543 14.5092 2.30577 14.0467 2.00381L12.9533 3.67842ZM12.7925 24.813C12.4022 25.2037 12.4024 25.8368 12.7931 26.2272C13.1838 26.6175 13.817 26.6173 14.2074 26.2266L12.7925 24.813ZM20.0449 20.3839C20.4353 19.9932 20.435 19.36 20.0443 18.9696C19.6536 18.5793 19.0205 18.5796 18.6301 18.9703L20.0449 20.3839ZM12.7926 24.8129C12.4022 25.2036 12.4025 25.8368 12.7931 26.2272C13.1838 26.6175 13.817 26.6173 14.2074 26.2266L12.7926 24.8129ZM23.5823 15.4295L24.2897 16.1364L24.2955 16.1304L23.5823 15.4295ZM23.5823 3.74579L24.2955 3.0449C24.2883 3.03758 24.281 3.03038 24.2736 3.02329L23.5823 3.74579ZM12.9532 2.00381C12.4908 2.30577 12.3607 2.92543 12.6627 3.38786C12.9646 3.85028 13.5843 3.98037 14.0467 3.67842L12.9532 2.00381ZM12.7926 26.2266C13.1829 26.6173 13.8161 26.6175 14.2068 26.2272C14.5975 25.8368 14.5978 25.2037 14.2074 24.813L12.7926 26.2266ZM8.36983 18.9703C7.97948 18.5796 7.34631 18.5793 6.95562 18.9696C6.56492 19.36 6.56464 19.9932 6.955 20.3839L8.36983 18.9703ZM14.0156 1.98431C13.5424 1.69953 12.9279 1.85227 12.6431 2.32546C12.3584 2.79866 12.5111 3.41313 12.9843 3.69791L14.0156 1.98431ZM15.0928 4.08676L14.3847 4.79288L14.3852 4.79334L15.0928 4.08676ZM16.5066 6.91796C16.8969 7.30878 17.53 7.30925 17.9209 6.91902C18.3117 6.52879 18.3121 5.89562 17.9219 5.50481L16.5066 6.91796ZM14.2074 24.8129L4.12509 14.7227L2.71032 16.1363L12.7926 26.2266L14.2074 24.8129ZM4.13097 14.7286C1.28968 11.8372 1.28968 7.33809 4.13097 4.44669L2.70445 3.0449C-0.901482 6.71442 -0.901482 12.4609 2.70445 16.1304L4.13097 14.7286ZM4.10907 4.4683C6.46904 2.21006 10.1864 1.87174 12.9533 3.67842L14.0467 2.00381C10.5099 -0.305642 5.76531 0.115326 2.72634 3.02329L4.10907 4.4683ZM14.2074 26.2266L20.0449 20.3839L18.6301 18.9703L12.7925 24.813L14.2074 26.2266ZM14.2074 26.2266L24.2896 16.1363L22.8749 14.7227L12.7926 24.8129L14.2074 26.2266ZM24.2955 16.1304C27.9015 12.4609 27.9015 6.71442 24.2955 3.0449L22.869 4.44669C25.7103 7.33809 25.7103 11.8372 22.869 14.7286L24.2955 16.1304ZM24.2736 3.02329C21.2347 0.115326 16.49 -0.305642 12.9532 2.00381L14.0467 3.67842C16.8135 1.87174 20.5309 2.21006 22.8909 4.4683L24.2736 3.02329ZM14.2074 24.813L8.36983 18.9703L6.955 20.3839L12.7926 26.2266L14.2074 24.813ZM12.9843 3.69791C13.4974 4.00673 13.9677 4.37467 14.3847 4.79288L15.8009 3.38064C15.2672 2.84547 14.6675 2.37663 14.0156 1.98431L12.9843 3.69791ZM14.3852 4.79334L16.5066 6.91796L17.9219 5.50481L15.8005 3.38018L14.3852 4.79334Z"
    fill="#8A8A8A" />
</svg>