<svg width="303" height="7" viewBox="0 0 303 7" fill="none" xmlns="http://www.w3.org/2000/svg">
  <path
    d="M302.667 3.51978C302.667 2.04702 301.473 0.853109 300 0.853109C298.527 0.853109 297.333 2.04702 297.333 3.51978C297.333 4.99253 298.527 6.18644 300 6.18644C301.473 6.18644 302.667 4.99253 302.667 3.51978ZM5.66666 3.51978C5.66666 2.04702 4.47275 0.853109 3 0.853109C1.52725 0.853109 0.333344 2.04702 0.333344 3.51978C0.333344 4.99253 1.52725 6.18644 3 6.18644C4.47275 6.18644 5.66666 4.99253 5.66666 3.51978ZM300 3.01978L3 3.01978V4.01978L300 4.01978V3.01978Z"
    fill="#8A8A8A" />
</svg>