<svg width="17" height="15" viewBox="0 0 17 15" fill="none" xmlns="http://www.w3.org/2000/svg">
  <path fill-rule="evenodd" clip-rule="evenodd"
    d="M11.2156 0.666222C10.9903 0.47096 10.625 0.47096 10.3997 0.666222L5.78436 4.66622C5.55906 4.86148 5.55906 5.17807 5.78436 5.37333C6.00966 5.56859 6.37495 5.56859 6.60025 5.37333L10.2308 2.22688V9.01977C10.2308 10.9528 8.42269 12.5198 6.19231 12.5198L1.57693 12.5198C1.2583 12.5198 1 12.7436 1 13.0198C1 13.2959 1.2583 13.5198 1.57693 13.5198L6.19231 13.5198C9.05994 13.5198 11.3846 11.5051 11.3846 9.01977L11.3846 2.22688L15.0151 5.37333C15.2404 5.56859 15.6057 5.56859 15.831 5.37333C16.0563 5.17807 16.0563 4.86148 15.831 4.66622L11.2156 0.666222Z"
    fill="#F8B602" stroke="#F8B602" stroke-linecap="round" stroke-linejoin="round" />
</svg>