<svg width="21" height="21" viewBox="0 0 21 21" fill="none" xmlns="http://www.w3.org/2000/svg">
  <path
    d="M20.1907 3.40637C20.0876 2.06617 19.0567 0.932146 17.6134 0.829054C15.5515 0.622868 12.6649 0.519775 10.5 0.519775C8.33505 0.519775 5.44845 0.622868 3.3866 0.829054C2.66495 0.829054 2.04639 1.13833 1.63402 1.6538C1.22165 2.16926 0.912371 2.68472 0.809278 3.40637C0.603093 5.46823 0.5 8.35483 0.5 10.5198C0.5 12.6847 0.706185 15.5713 0.809278 17.6332C0.912371 18.9734 1.9433 20.1074 3.3866 20.2105C5.44845 20.4167 8.33505 20.5198 10.5 20.5198C12.6649 20.5198 15.5515 20.3136 17.6134 20.2105C18.9536 20.1074 20.0876 19.0765 20.1907 17.6332C20.3969 15.5713 20.5 12.6847 20.5 10.5198C20.5 8.35483 20.3969 5.46823 20.1907 3.40637ZM11.5309 11.5507L8.02577 15.1589C7.81959 15.262 7.71649 15.3651 7.51031 15.3651C7.30412 15.3651 7.09794 15.262 6.99485 15.1589C6.68557 14.8497 6.68557 14.3342 6.99485 14.0249L9.88144 11.1383V6.39606C9.88144 5.98369 10.1907 5.57132 10.7062 5.57132C11.2216 5.57132 11.5309 5.8806 11.5309 6.39606V11.5507Z"
    fill="#EB5757" />
</svg>