 <svg
          width="32"
          height="35"
          viewBox="0 0 32 35"
          fill="none"
          xmlns="http://www.w3.org/2000/svg"
        >
          <path
            fill-rule="evenodd"
            clip-rule="evenodd"
            d="M4.33214 13.0366C4.33079 10.6294 5.01451 8.27419 6.29929 6.26054C7.57149 4.26298 9.39379 2.69917 11.5343 1.76812C14.3886 0.530418 17.6092 0.530418 20.4636 1.76812C22.6049 2.6988 24.4279 4.26264 25.7007 6.26054C28.3123 10.3566 28.3274 15.6481 25.7393 19.7598L31 29.3782L25.4586 28.2782L23.6864 33.8398L18.8029 24.8748C16.9631 25.351 15.0369 25.351 13.1971 24.8748L8.31357 33.8398L6.54143 28.276L1 29.3782L6.26072 19.7598C4.99922 17.7568 4.32941 15.4218 4.33214 13.0366Z"
            fill="#8A8A8A"
            stroke="white"
            stroke-width="1.5"
            stroke-linecap="round"
            stroke-linejoin="round"
          />
          <path
            fill-rule="evenodd"
            clip-rule="evenodd"
            d="M15.4513 8.15887C15.5545 7.94402 15.7676 7.80798 16.001 7.80798C16.2343 7.80798 16.4474 7.94402 16.5506 8.15887L17.6885 10.4601C17.7734 10.6343 17.9313 10.7591 18.117 10.7989L20.4999 11.2895C20.7181 11.3424 20.8937 11.5082 20.9632 11.727C21.0328 11.9458 20.9863 12.186 20.8406 12.3609L19.1392 14.3409C19.0194 14.4816 18.9633 14.6679 18.9849 14.8535L19.2999 17.5331C19.3318 17.7674 19.2348 18.0006 19.0479 18.139C18.861 18.2773 18.6149 18.2982 18.4085 18.1931L16.2656 17.0755C16.092 16.9842 15.8863 16.9842 15.7127 17.0755L13.5699 18.1931C13.3634 18.2982 13.1173 18.2773 12.9304 18.139C12.7435 18.0006 12.6465 17.7674 12.6785 17.5331L12.9935 14.8601C13.015 14.6745 12.959 14.4882 12.8392 14.3475L11.1377 12.3675C10.9885 12.1896 10.9426 11.9436 11.0172 11.7217C11.0918 11.4997 11.2756 11.3352 11.4999 11.2895L13.8827 10.7967C14.0685 10.7569 14.2263 10.6321 14.3113 10.4579L15.4513 8.15887Z"
            fill="#8A8A8A"
            stroke="white"
            stroke-width="1.5"
            stroke-linecap="round"
            stroke-linejoin="round"
          />
          <path
            fill-rule="evenodd"
            clip-rule="evenodd"
            d="M6.26062 19.7598C6.6966 20.4466 7.19916 21.0864 7.76062 21.6694C9.0879 23.0598 10.7262 24.0961 12.5328 24.6878C12.7556 24.7611 12.9806 24.8271 13.2078 24.8858M25.7393 19.7598C25.3034 20.4466 24.8008 21.0864 24.2393 21.6694C22.9121 23.0598 21.2738 24.0961 19.4672 24.6878C19.2443 24.7611 19.0193 24.8271 18.7922 24.8858"
            fill="#8A8A8A"
          />
          <path
            d="M6.89383 19.3578C6.67185 19.0081 6.2084 18.9046 5.85869 19.1266C5.50898 19.3485 5.40543 19.812 5.62741 20.1617L6.89383 19.3578ZM7.76062 21.6694L8.30314 21.1515L8.30082 21.1491L7.76062 21.6694ZM12.5328 24.6878L12.7672 23.9754L12.7662 23.975L12.5328 24.6878ZM13.0202 25.612C13.4213 25.7155 13.8304 25.4744 13.9339 25.0733C14.0375 24.6723 13.7964 24.2632 13.3953 24.1596L13.0202 25.612ZM26.3726 20.1617C26.5945 19.812 26.491 19.3485 26.1413 19.1266C25.7916 18.9046 25.3281 19.0081 25.1061 19.3578L26.3726 20.1617ZM24.2393 21.6694L23.6991 21.1491L23.6968 21.1515L24.2393 21.6694ZM19.4672 24.6878L19.2338 23.975L19.2328 23.9754L19.4672 24.6878ZM18.6046 24.1596C18.2036 24.2632 17.9624 24.6723 18.066 25.0733C18.1696 25.4744 18.5787 25.7155 18.9798 25.612L18.6046 24.1596ZM5.62741 20.1617C6.09021 20.8908 6.62389 21.5703 7.22042 22.1896L8.30082 21.1491C7.77444 20.6026 7.30299 20.0024 6.89383 19.3578L5.62741 20.1617ZM7.2181 22.1872C8.62977 23.6661 10.3739 24.7699 12.2993 25.4005L12.7662 23.975C11.0785 23.4223 9.54603 22.4536 8.30314 21.1515L7.2181 22.1872ZM12.2983 25.4002C12.5367 25.4786 12.7773 25.5492 13.0202 25.612L13.3953 24.1596C13.184 24.105 12.9746 24.0436 12.7672 23.9754L12.2983 25.4002ZM25.1061 19.3578C24.697 20.0024 24.2255 20.6026 23.6991 21.1491L24.7795 22.1896C25.3761 21.5703 25.9098 20.8908 26.3726 20.1617L25.1061 19.3578ZM23.6968 21.1515C22.4539 22.4536 20.9215 23.4223 19.2338 23.975L19.7006 25.4005C21.6261 24.7699 23.3702 23.6661 24.7819 22.1872L23.6968 21.1515ZM19.2328 23.9754C19.0254 24.0436 18.816 24.105 18.6046 24.1596L18.9798 25.612C19.2227 25.5492 19.4633 25.4786 19.7016 25.4002L19.2328 23.9754Z"
            fill="white"
          />
        </svg>