<svg width="20" height="21" viewBox="0 0 20 21" fill="none"
                                    xmlns="http://www.w3.org/2000/svg">
                                    <path d="M15.4167 4.56982C13.25 8.36149 9.07504 10.5365 4.72504 10.1448L2.08337 9.90316"
                                        stroke="white" stroke-miterlimit="10" stroke-linecap="round"
                                        stroke-linejoin="round" />
                                    <path d="M4.58337 16.7197C6.75004 12.9281 10.925 10.7531 15.275 11.1447L17.9167 11.3864"
                                        stroke="white" stroke-miterlimit="10" stroke-linecap="round"
                                        stroke-linejoin="round" />
                                    <path
                                        d="M9.99996 18.9115C14.6023 18.9115 18.3333 15.1805 18.3333 10.5781C18.3333 5.97577 14.6023 2.24481 9.99996 2.24481C5.39759 2.24481 1.66663 5.97577 1.66663 10.5781C1.66663 15.1805 5.39759 18.9115 9.99996 18.9115Z"
                                        stroke="white" stroke-miterlimit="10" stroke-linecap="round"
                                        stroke-linejoin="round" />
                                    <path
                                        d="M6.35828 3.07812L9.00828 6.36979C10.7833 8.56979 12.0416 11.1281 12.7083 13.8698L13.7166 18.0281"
                                        stroke="white" stroke-miterlimit="10" stroke-linecap="round"
                                        stroke-linejoin="round" />
                                </svg>