<svg width="20" height="21" viewBox="0 0 20 21" fill="none"
                                    xmlns="http://www.w3.org/2000/svg">
                                    <path
                                        d="M11.6667 8.32813V10.7448H13.8333C14 10.7448 14.0833 10.9115 14.0833 11.0781L13.75 12.6615C13.75 12.7448 13.5833 12.8281 13.5 12.8281H11.6667V18.9115H9.16667V12.9115H7.75C7.58333 12.9115 7.5 12.8281 7.5 12.6615V11.0781C7.5 10.9115 7.58333 10.8281 7.75 10.8281H9.16667V8.07813C9.16667 6.66146 10.25 5.57812 11.6667 5.57812H13.9167C14.0833 5.57812 14.1667 5.66146 14.1667 5.82813V7.82812C14.1667 7.99479 14.0833 8.07813 13.9167 8.07813H11.9167C11.75 8.07813 11.6667 8.16146 11.6667 8.32813Z"
                                        stroke="white" stroke-miterlimit="10" stroke-linecap="round" />
                                    <path
                                        d="M12.5 18.9115H7.49996C3.33329 18.9115 1.66663 17.2448 1.66663 13.0781V8.07815C1.66663 3.91148 3.33329 2.24481 7.49996 2.24481H12.5C16.6666 2.24481 18.3333 3.91148 18.3333 8.07815V13.0781C18.3333 17.2448 16.6666 18.9115 12.5 18.9115Z"
                                        stroke="white" stroke-linecap="round" stroke-linejoin="round" />
                                </svg>