<svg width="20" height="21" viewBox="0 0 20 21" fill="none"
                                    xmlns="http://www.w3.org/2000/svg">
                                    <path
                                        d="M9.99996 2.24481H7.24996C5.66663 2.24481 4.41663 3.49481 4.41663 4.99481C4.41663 6.49481 5.66663 7.74481 7.16663 7.74481H9.99996V2.24481Z"
                                        stroke="white" stroke-miterlimit="10" />
                                    <path
                                        d="M10 7.82812H7.25C5.75 7.82812 4.5 9.07813 4.5 10.5781C4.5 12.0781 5.75 13.3281 7.25 13.3281H10V7.82812Z"
                                        stroke="white" stroke-miterlimit="10" />
                                    <path
                                        d="M10 13.3281H7.25C5.75 13.3281 4.5 14.5781 4.5 16.0781C4.5 17.5781 5.75 18.8281 7.25 18.8281C8.75 18.8281 10 17.5781 10 16.0781V13.3281Z"
                                        stroke="white" stroke-miterlimit="10" />
                                    <path
                                        d="M10 2.24481H12.75C14.25 2.24481 15.5 3.49481 15.5 4.99481C15.5 6.49481 14.25 7.74481 12.75 7.74481H10V2.24481Z"
                                        stroke="white" stroke-miterlimit="10" />
                                    <path
                                        d="M12.75 7.82812C14.25 7.82812 15.5 9.07813 15.5 10.5781C15.5 12.0781 14.25 13.3281 12.75 13.3281C11.25 13.3281 10 12.0781 10 10.5781C10 9.07813 11.25 7.82812 12.75 7.82812Z"
                                        stroke="white" stroke-miterlimit="10" />
                                </svg>