<svg width="21" height="21" viewBox="0 0 20 21" fill="none" xmlns="http://www.w3.org/2000/svg">
    <path
        d="M17.3084 16.8531C17.3084 17.1531 17.2417 17.4614 17.1 17.7614C16.9584 18.0614 16.775 18.3448 16.5334 18.6114C16.125 19.0614 15.675 19.3864 15.1667 19.5948C14.6667 19.8031 14.125 19.9114 13.5417 19.9114C12.6917 19.9114 11.7834 19.7114 10.825 19.3031C9.86669 18.8948 8.90835 18.3448 7.95835 17.6531C7.00002 16.9531 6.09169 16.1781 5.22502 15.3198C4.36669 14.4531 3.59169 13.5448 2.90002 12.5948C2.21669 11.6448 1.66669 10.6948 1.26669 9.75308C0.866687 8.80308 0.666687 7.89475 0.666687 7.02808C0.666687 6.46142 0.766687 5.91975 0.966687 5.41975C1.16669 4.91142 1.48335 4.44475 1.92502 4.02808C2.45835 3.50308 3.04169 3.24475 3.65835 3.24475C3.89169 3.24475 4.12502 3.29475 4.33335 3.39475C4.55002 3.49475 4.74169 3.64475 4.89169 3.86142L6.82502 6.58642C6.97502 6.79475 7.08335 6.98642 7.15835 7.16975C7.23335 7.34475 7.27502 7.51975 7.27502 7.67808C7.27502 7.87808 7.21669 8.07808 7.10002 8.26975C6.99169 8.46142 6.83335 8.66142 6.63335 8.86142L6.00002 9.51975C5.90835 9.61142 5.86669 9.71975 5.86669 9.85308C5.86669 9.91975 5.87502 9.97808 5.89169 10.0448C5.91669 10.1114 5.94169 10.1614 5.95835 10.2114C6.10835 10.4864 6.36669 10.8448 6.73335 11.2781C7.10835 11.7114 7.50835 12.1531 7.94169 12.5948C8.39169 13.0364 8.82502 13.4448 9.26669 13.8198C9.70002 14.1864 10.0584 14.4364 10.3417 14.5864C10.3834 14.6031 10.4334 14.6281 10.4917 14.6531C10.5584 14.6781 10.625 14.6864 10.7 14.6864C10.8417 14.6864 10.95 14.6364 11.0417 14.5448L11.675 13.9198C11.8834 13.7114 12.0834 13.5531 12.275 13.4531C12.4667 13.3364 12.6584 13.2781 12.8667 13.2781C13.025 13.2781 13.1917 13.3114 13.375 13.3864C13.5584 13.4614 13.75 13.5698 13.9584 13.7114L16.7167 15.6698C16.9334 15.8198 17.0834 15.9948 17.175 16.2031C17.2584 16.4114 17.3084 16.6198 17.3084 16.8531Z"
        stroke="#4475F2" stroke-width="1.2" stroke-miterlimit="10" />
    <path
        d="M14.4167 9.07817C14.4167 8.57817 14.0251 7.8115 13.4417 7.1865C12.9084 6.6115 12.2001 6.1615 11.5001 6.1615"
        stroke="#4475F2" stroke-width="1.2" stroke-linecap="round" stroke-linejoin="round" />
    <path d="M17.3334 9.07808C17.3334 5.85308 14.7251 3.24475 11.5001 3.24475" stroke="#4475F2"
        stroke-width="1.2" stroke-linecap="round" stroke-linejoin="round" />
</svg>