<svg width="20" height="21" viewBox="0 0 20 21" fill="none"
                                    xmlns="http://www.w3.org/2000/svg">
                                    <path
                                        d="M5.74996 17.7448C6.99996 18.4948 8.49996 18.9115 9.99996 18.9115C14.5833 18.9115 18.3333 15.1615 18.3333 10.5781C18.3333 5.99481 14.5833 2.24481 9.99996 2.24481C5.41663 2.24481 1.66663 5.99481 1.66663 10.5781C1.66663 12.0781 2.08329 13.4948 2.74996 14.7448L2.10707 17.2175C1.91235 17.9664 2.60555 18.6432 3.34961 18.4306L5.74996 17.7448Z"
                                        stroke="white" stroke-miterlimit="10" stroke-linecap="round"
                                        stroke-linejoin="round" />
                                    <path
                                        d="M13.75 12.9519C13.75 13.0869 13.72 13.2256 13.6561 13.3606C13.5923 13.4956 13.5096 13.6231 13.4007 13.7431C13.2167 13.9456 13.0139 14.0919 12.7848 14.1856C12.5595 14.2794 12.3153 14.3281 12.0525 14.3281C11.6694 14.3281 11.26 14.2381 10.8281 14.0544C10.3962 13.8706 9.96432 13.6231 9.53618 13.3119C9.10428 12.9969 8.69492 12.6481 8.30433 12.2619C7.9175 11.8719 7.56823 11.4631 7.25651 11.0356C6.94855 10.6081 6.70068 10.1806 6.52041 9.75688C6.34014 9.32938 6.25 8.92062 6.25 8.53062C6.25 8.27562 6.29507 8.03188 6.3852 7.80688C6.47534 7.57813 6.61805 7.36813 6.8171 7.18063C7.05746 6.94438 7.32036 6.82812 7.59827 6.82812C7.70343 6.82812 7.80859 6.85063 7.90248 6.89563C8.00013 6.94063 8.0865 7.00813 8.15411 7.10563L9.02541 8.33188C9.09301 8.42563 9.14184 8.51188 9.17564 8.59438C9.20944 8.67313 9.22822 8.75188 9.22822 8.82313C9.22822 8.91313 9.20193 9.00312 9.14935 9.08937C9.10053 9.17562 9.02917 9.26562 8.93903 9.35562L8.65361 9.65187C8.61229 9.69312 8.59352 9.74188 8.59352 9.80188C8.59352 9.83188 8.59727 9.85812 8.60478 9.88812C8.61605 9.91812 8.62732 9.94062 8.63483 9.96312C8.70243 10.0869 8.81885 10.2481 8.9841 10.4431C9.1531 10.6381 9.33337 10.8369 9.52867 11.0356C9.73147 11.2344 9.92677 11.4181 10.1258 11.5869C10.3211 11.7519 10.4826 11.8644 10.6103 11.9319C10.6291 11.9394 10.6516 11.9506 10.6779 11.9619C10.7079 11.9731 10.738 11.9769 10.7718 11.9769C10.8356 11.9769 10.8845 11.9544 10.9258 11.9131L11.2112 11.6319C11.3051 11.5381 11.3952 11.4669 11.4816 11.4219C11.568 11.3694 11.6544 11.3431 11.7482 11.3431C11.8196 11.3431 11.8947 11.3581 11.9773 11.3919C12.06 11.4256 12.1463 11.4744 12.2402 11.5381L13.4834 12.4194C13.581 12.4869 13.6486 12.5656 13.6899 12.6594C13.7275 12.7531 13.75 12.8469 13.75 12.9519Z"
                                        stroke="white" stroke-miterlimit="10" />
                                </svg>