<svg width="26" height="23" viewBox="0 0 26 23" fill="none" xmlns="http://www.w3.org/2000/svg">
<path fill-rule="evenodd" clip-rule="evenodd" d="M4.09464 16.8056C2.61208 15.544 1.60652 13.9475 1.2027 12.2141C0.795532 10.4758 1.00461 8.6763 1.8044 7.0354C2.59735 5.4037 3.95114 4.00364 5.69575 3.01102C9.23543 0.996326 13.8953 0.996326 17.435 3.01102C19.1796 4.00364 20.5334 5.4037 21.3263 7.0354C22.1261 8.6763 22.3352 10.4758 21.928 12.2141C21.5242 13.9475 20.5186 15.544 19.0361 16.8056C17.0727 18.4847 14.3786 19.4317 11.5654 19.4317C8.75207 19.4317 6.05806 18.4847 4.09464 16.8056V16.8056Z" stroke="white" stroke-width="1.5" stroke-linecap="round" stroke-linejoin="round"/>
<path d="M11.6469 4.96522C11.2342 5.00166 10.9293 5.36568 10.9657 5.77829C11.0022 6.19089 11.3662 6.49584 11.7788 6.45941L11.6469 4.96522ZM15.2664 8.1249C15.454 8.49419 15.9054 8.64149 16.2747 8.45389C16.644 8.26629 16.7913 7.81484 16.6037 7.44554L15.2664 8.1249ZM19.6717 16.0918C19.3533 15.8269 18.8804 15.8702 18.6155 16.1887C18.3506 16.5071 18.394 16.98 18.7124 17.2449L19.6717 16.0918ZM24.5203 22.0764C24.8388 22.3413 25.3116 22.298 25.5765 21.9795C25.8414 21.6611 25.798 21.1882 25.4796 20.9233L24.5203 22.0764ZM11.7788 6.45941C13.3375 6.32177 14.7251 7.05943 15.2664 8.1249L16.6037 7.44554C15.7324 5.73041 13.6912 4.78469 11.6469 4.96522L11.7788 6.45941ZM18.7124 17.2449L24.5203 22.0764L25.4796 20.9233L19.6717 16.0918L18.7124 17.2449Z" fill="white"/>
</svg>
